<?xml version="1.0" encoding="UTF-8" standalone="no"?><svg xmlns="http://www.w3.org/2000/svg" xmlns:xlink="http://www.w3.org/1999/xlink" contentStyleType="text/css" height="499px" preserveAspectRatio="none" style="width:985px;height:499px;background:#FFFFFF;" version="1.1" viewBox="0 0 985 499" width="985px" zoomAndPan="magnify"><defs/><g><!--MD5=[75b734d1db3ce9d09c7f82392295d704]
entity home--><g id="elem_home"><rect fill="#F1F1F1" height="36.2969" rx="2.5" ry="2.5" style="stroke:#181818;stroke-width:0.5;" width="69" x="514.5" y="7"/><text fill="#000000" font-family="sans-serif" font-size="14" lengthAdjust="spacing" textLength="49" x="524.5" y="29.9951">Accueil</text></g><!--MD5=[5a00c680bb56897bbb2f8adc5df0be42]
entity creer_compte--><g id="elem_creer_compte"><rect fill="#F1F1F1" height="36.2969" rx="2.5" ry="2.5" style="stroke:#181818;stroke-width:0.5;" width="137" x="546.5" y="103"/><text fill="#000000" font-family="sans-serif" font-size="14" lengthAdjust="spacing" textLength="117" x="556.5" y="125.9951">Créer un compte</text></g><!--MD5=[28ef2d2147a7f3db4ececc4919884cbb]
entity connexion--><g id="elem_connexion"><rect fill="#F1F1F1" height="36.2969" rx="2.5" ry="2.5" style="stroke:#181818;stroke-width:0.5;" width="113" x="718.5" y="103"/><text fill="#000000" font-family="sans-serif" font-size="14" lengthAdjust="spacing" textLength="93" x="728.5" y="125.9951">Se connecter</text></g><!--MD5=[9402cda052922f54116c1806810d2e87]
entity projects_user--><g id="elem_projects_user"><rect fill="#F1F1F1" height="36.2969" rx="2.5" ry="2.5" style="stroke:#181818;stroke-width:0.5;" width="173" x="249.5" y="441.5"/><text fill="#000000" font-family="sans-serif" font-size="14" lengthAdjust="spacing" textLength="153" x="259.5" y="464.4951">Projets d'un utilisateur</text></g><!--MD5=[a4b970f62b8843ed5d3e1ee6427fa495]
entity this_projects_user--><g id="elem_this_projects_user"><rect fill="#F1F1F1" height="52.5938" rx="2.5" ry="2.5" style="stroke:#181818;stroke-width:0.5;" width="167" x="409.5" y="199"/><text fill="#000000" font-family="sans-serif" font-size="14" lengthAdjust="spacing" textLength="147" x="419.5" y="221.9951">Projets de l'utilisateur</text><text fill="#000000" font-family="sans-serif" font-size="14" lengthAdjust="spacing" textLength="66" x="419.5" y="238.292">connecté</text></g><!--MD5=[b1efb2a5b5fcf63c2340c02cdb2df214]
entity list_cours--><g id="elem_list_cours"><rect fill="#F1F1F1" height="52.5938" rx="2.5" ry="2.5" style="stroke:#181818;stroke-width:0.5;" width="182" x="619" y="433"/><text fill="#000000" font-family="sans-serif" font-size="14" lengthAdjust="spacing" textLength="162" x="629" y="455.9951">Liste de cours associés</text><text fill="#000000" font-family="sans-serif" font-size="14" lengthAdjust="spacing" textLength="112" x="629" y="472.292">à un enseignant</text></g><!--MD5=[a36fba0056018f06d770939771e06756]
entity this_list_cours--><g id="elem_this_list_cours"><rect fill="#F1F1F1" height="52.5938" rx="2.5" ry="2.5" style="stroke:#181818;stroke-width:0.5;" width="186" x="546" y="312"/><text fill="#000000" font-family="sans-serif" font-size="14" lengthAdjust="spacing" textLength="162" x="556" y="334.9951">Liste de cours associés</text><text fill="#000000" font-family="sans-serif" font-size="14" lengthAdjust="spacing" textLength="166" x="556" y="351.292">à l'enseignant connecté</text></g><!--MD5=[32433f7798988ae9351e8408c70778c5]
entity projects_cours--><g id="elem_projects_cours"><rect fill="#F1F1F1" height="68.8906" rx="2.5" ry="2.5" style="stroke:#181818;stroke-width:0.5;" width="126" x="458" y="425"/><text fill="#000000" font-family="sans-serif" font-size="14" lengthAdjust="spacing" textLength="102" x="468" y="447.9951">Projets dans le</text><text fill="#000000" font-family="sans-serif" font-size="14" lengthAdjust="spacing" textLength="39" x="468" y="464.292">cadre</text><text fill="#000000" font-family="sans-serif" font-size="14" lengthAdjust="spacing" textLength="73" x="468" y="480.5889">d'un cours</text></g><!--MD5=[5682a1a8c7620c6861a44355158accff]
entity depot_project--><g id="elem_depot_project"><rect fill="#F1F1F1" height="36.2969" rx="2.5" ry="2.5" style="stroke:#181818;stroke-width:0.5;" width="210" x="164" y="207.5"/><text fill="#000000" font-family="sans-serif" font-size="14" lengthAdjust="spacing" textLength="190" x="174" y="230.4951">Déposer un nouveau projet</text></g><!--MD5=[5ba738446d98a6bfb61f172a873fa7a2]
entity fichiers--><g id="elem_fichiers"><rect fill="#F1F1F1" height="36.2969" rx="2.5" ry="2.5" style="stroke:#181818;stroke-width:0.5;" width="151" x="288.5" y="320.5"/><text fill="#000000" font-family="sans-serif" font-size="14" lengthAdjust="spacing" textLength="131" x="298.5" y="343.4951">Fichiers d'un projet</text></g><!--MD5=[e8a8452d1ed154eb662abd39636edec3]
entity recherche--><g id="elem_recherche"><rect fill="#F1F1F1" height="36.2969" rx="2.5" ry="2.5" style="stroke:#181818;stroke-width:0.5;" width="166" x="767" y="320.5"/><text fill="#000000" font-family="sans-serif" font-size="14" lengthAdjust="spacing" textLength="146" x="777" y="343.4951">Rechercher un cours</text></g><!--MD5=[974b85d27fd3965e7ed776db986bd864]
entity ajout_admin--><g id="elem_ajout_admin"><rect fill="#F1F1F1" height="36.2969" rx="2.5" ry="2.5" style="stroke:#181818;stroke-width:0.5;" width="194" x="246" y="103"/><text fill="#000000" font-family="sans-serif" font-size="14" lengthAdjust="spacing" textLength="174" x="256" y="125.9951">Ajouter un administrateur</text></g><!--MD5=[14aa2bafba1dabdc21c8d86b7b6ae2bb]
entity prof_cours--><g id="elem_prof_cours"><rect fill="#F1F1F1" height="36.2969" rx="2.5" ry="2.5" style="stroke:#181818;stroke-width:0.5;" width="204" x="7" y="103"/><text fill="#000000" font-family="sans-serif" font-size="14" lengthAdjust="spacing" textLength="184" x="17" y="125.9951">Renseigner un enseignant</text></g><!--MD5=[ee83a73f695753738684644f8907fbf1]
entity email_verif--><g id="elem_email_verif"><rect fill="#F1F1F1" height="36.2969" rx="2.5" ry="2.5" style="stroke:#181818;stroke-width:0.5;" width="113" x="866.5" y="103"/><text fill="#000000" font-family="sans-serif" font-size="14" lengthAdjust="spacing" textLength="93" x="876.5" y="125.9951">Vérifier l'email</text></g><!--MD5=[db66cdb930a8b24701f70dbfe0842061]
entity change_password--><g id="elem_change_password"><rect fill="#F1F1F1" height="36.2969" rx="2.5" ry="2.5" style="stroke:#181818;stroke-width:0.5;" width="200" x="675" y="7"/><text fill="#000000" font-family="sans-serif" font-size="14" lengthAdjust="spacing" textLength="180" x="685" y="29.9951">Changer de mot de passe</text></g><!--MD5=[b25eb0299ddbb097e04ac17cdc6d4dfc]
link home to creer_compte--><g id="link_home_creer_compte"><path d="M561.11,43.24 C572.08,58.88 588.3,81.98 600.08,98.75 " fill="none" id="home-to-creer_compte" style="stroke:#181818;stroke-width:1.0;"/><polygon fill="#181818" points="602.97,102.87,601.0676,93.2066,600.095,98.7792,594.5224,97.8066,602.97,102.87" style="stroke:#181818;stroke-width:1.0;"/></g><!--MD5=[5bc5694ae9c07e0eb9f24b682ac6a25e]
link home to connexion--><g id="link_home_connexion"><path d="M583.82,40.48 C622.8,56.7 686.14,83.04 729.14,100.92 " fill="none" id="home-to-connexion" style="stroke:#181818;stroke-width:1.0;"/><polygon fill="#181818" points="734.01,102.95,727.2298,95.8066,729.3917,101.034,724.1642,103.1959,734.01,102.95" style="stroke:#181818;stroke-width:1.0;"/></g><!--MD5=[c4c0c57ba1b5d0d006a80b956f0f006a]
link creer_compte to this_projects_user--><g id="link_creer_compte_this_projects_user"><path d="M594.58,139.16 C576.32,154.5 549.17,177.31 527.54,195.48 " fill="none" id="creer_compte-to-this_projects_user" style="stroke:#181818;stroke-width:1.0;"/><polygon fill="#181818" points="523.56,198.82,533.0248,196.0966,527.3894,195.605,527.8809,189.9696,523.56,198.82" style="stroke:#181818;stroke-width:1.0;"/></g><!--MD5=[b8addc93699075704bce83902830e613]
link connexion to email_verif--><g id="link_connexion_email_verif"><path d="M831.66,121 C841.48,121 851.31,121 861.13,121 " fill="none" id="connexion-to-email_verif" style="stroke:#181818;stroke-width:1.0;"/><polygon fill="#181818" points="866.27,121,857.27,117,861.27,121,857.27,125,866.27,121" style="stroke:#181818;stroke-width:1.0;"/></g><!--MD5=[112025d968ca432276f31a5524cd687a]
link connexion to this_projects_user--><g id="link_connexion_this_projects_user"><path d="M728.12,139.04 C684.57,154.87 618.99,178.71 568.14,197.19 " fill="none" id="connexion-to-this_projects_user" style="stroke:#181818;stroke-width:1.0;"/><polygon fill="#181818" points="563.27,198.96,573.0939,199.6603,567.9719,197.2593,570.3728,192.1373,563.27,198.96" style="stroke:#181818;stroke-width:1.0;"/></g><!--MD5=[0c068e96075eb3d24922f88412e5d0cf]
reverse link change_password to email_verif--><g id="link_change_password_email_verif"><path d="M806.3,45.88 C832.87,62.75 870.6,86.72 895.9,102.79 " fill="none" id="change_password-backto-email_verif" style="stroke:#181818;stroke-width:1.0;"/><polygon fill="#181818" points="801.8,43.02,807.2401,51.2301,806.0165,45.7072,811.5395,44.4836,801.8,43.02" style="stroke:#181818;stroke-width:1.0;"/></g><!--MD5=[81b2dfd62a8d4096a19915f3a8d3cae8]
reverse link home to change_password--><g id="link_home_change_password"><path d="M589.21,25 C617.79,25 646.37,25 674.96,25 " fill="none" id="home-backto-change_password" style="stroke:#181818;stroke-width:1.0;"/><polygon fill="#181818" points="583.87,25,592.87,29,588.87,25,592.87,21,583.87,25" style="stroke:#181818;stroke-width:1.0;"/></g><!--MD5=[2f0e2bd3bf266c22e114e5edfe9ca19e]
link this_projects_user to projects_user--><g id="link_this_projects_user_projects_user"><path d="M409.42,248.05 C353.62,264.33 287.54,287.91 271,312 C242.97,352.84 285.35,407.71 313.77,437.36 " fill="none" id="this_projects_user-to-projects_user" style="stroke:#181818;stroke-width:1.0;"/><polygon fill="#181818" points="317.51,441.2,314.0864,431.9654,314.0177,437.6218,308.3612,437.5531,317.51,441.2" style="stroke:#181818;stroke-width:1.0;"/></g><!--MD5=[ef8d9f05fbfe274e4a1ec09437a57355]
link this_projects_user to this_list_cours--><g id="link_this_projects_user_this_list_cours"><path d="M526.86,252.24 C549.07,269.13 578.13,291.22 601.11,308.69 " fill="none" id="this_projects_user-to-this_list_cours" style="stroke:#181818;stroke-width:1.0;"/><polygon fill="#181818" points="605.32,311.89,600.589,303.2518,601.3442,308.8581,595.7379,309.6132,605.32,311.89" style="stroke:#181818;stroke-width:1.0;"/></g><!--MD5=[dcafa1b1e9c10d371819e08006b1ce0f]
reverse link depot_project to this_projects_user--><g id="link_depot_project_this_projects_user"><path d="M379.24,239 C389.27,239.03 399.3,238.75 409.33,238.14 " fill="none" id="depot_project-backto-this_projects_user" style="stroke:#181818;stroke-width:1.0;"/><polygon fill="#181818" points="374,238.95,382.9537,243.0526,378.9997,239.0071,383.0451,235.0531,374,238.95" style="stroke:#181818;stroke-width:1.0;"/></g><!--MD5=[e37c2515380050204be36a848a303c46]
link depot_project to this_projects_user--><g id="link_depot_project_this_projects_user"><path d="M374,212.05 C384.03,211.9 394.06,212.08 404.08,212.57 " fill="none" id="depot_project-to-this_projects_user" style="stroke:#181818;stroke-width:1.0;"/><polygon fill="#181818" points="409.33,212.86,400.5608,208.3767,404.3374,212.5882,400.1259,216.3648,409.33,212.86" style="stroke:#181818;stroke-width:1.0;"/></g><!--MD5=[91948967fca436183098bb5d1e4e1391]
link this_projects_user to projects_cours--><g id="link_this_projects_user_projects_cours"><path d="M496.1,252.21 C501.01,292.85 510.58,372.18 516.32,419.74 " fill="none" id="this_projects_user-to-projects_cours" style="stroke:#181818;stroke-width:1.0;"/><polygon fill="#181818" points="516.93,424.81,519.8196,415.3946,516.3292,419.8462,511.8775,416.3559,516.93,424.81" style="stroke:#181818;stroke-width:1.0;"/></g><!--MD5=[cf5b5d1a73c4baad856d3d39b03e6781]
link this_projects_user to fichiers--><g id="link_this_projects_user_fichiers"><path d="M463.08,252.24 C440.24,271.9 409.18,298.62 387.96,316.88 " fill="none" id="this_projects_user-to-fichiers" style="stroke:#181818;stroke-width:1.0;"/><polygon fill="#181818" points="384.12,320.19,393.5512,317.3523,387.9102,316.929,388.3336,311.288,384.12,320.19" style="stroke:#181818;stroke-width:1.0;"/></g><!--MD5=[2b80ca1f189ba8ca7bb8b57d4d63dc87]
link this_projects_user to recherche--><g id="link_this_projects_user_recherche"><path d="M575.35,252.11 C641.05,272.53 731.51,300.66 790.36,318.96 " fill="none" id="this_projects_user-to-recherche" style="stroke:#181818;stroke-width:1.0;"/><polygon fill="#181818" points="795.25,320.48,787.8461,313.9852,790.4761,318.9935,785.4677,321.6235,795.25,320.48" style="stroke:#181818;stroke-width:1.0;"/></g><!--MD5=[d416c67fe33d244bfbddb94c54215534]
reverse link ajout_admin to this_projects_user--><g id="link_ajout_admin_this_projects_user"><path d="M372.42,142.11 C396.17,158.33 429.73,181.27 455.42,198.82 " fill="none" id="ajout_admin-backto-this_projects_user" style="stroke:#181818;stroke-width:1.0;"/><polygon fill="#181818" points="368.11,139.16,373.2936,147.5344,372.2414,141.9762,377.7996,140.9241,368.11,139.16" style="stroke:#181818;stroke-width:1.0;"/></g><!--MD5=[561b95dc8300e24c277b5a8fbabb2ef1]
reverse link prof_cours to this_projects_user--><g id="link_prof_cours_this_projects_user"><path d="M177.84,140.38 C242.65,157.68 339.86,183.62 409.16,202.12 " fill="none" id="prof_cours-backto-this_projects_user" style="stroke:#181818;stroke-width:1.0;"/><polygon fill="#181818" points="172.84,139.04,180.5077,145.2211,177.6716,140.3265,182.5662,137.4904,172.84,139.04" style="stroke:#181818;stroke-width:1.0;"/></g><!--MD5=[ccf8ce47587395c914bdb7ae24b57959]
link this_list_cours to projects_cours--><g id="link_this_list_cours_projects_cours"><path d="M613.69,365.03 C597.43,381.42 576.05,402.98 557.92,421.27 " fill="none" id="this_list_cours-to-projects_cours" style="stroke:#181818;stroke-width:1.0;"/><polygon fill="#181818" points="554.34,424.88,563.5252,421.3259,557.8684,421.3373,557.857,415.6805,554.34,424.88" style="stroke:#181818;stroke-width:1.0;"/></g><!--MD5=[472b3a7633dfcc018f6899430a759cbf]
link projects_cours to list_cours--><g id="link_projects_cours_list_cours"><path d="M584.12,482.52 C593.89,484.3 603.66,485.25 613.43,485.36 " fill="none" id="projects_cours-to-list_cours" style="stroke:#181818;stroke-width:1.0;"/><polygon fill="#181818" points="618.54,485.35,609.5286,481.3757,613.54,485.3643,609.5515,489.3757,618.54,485.35" style="stroke:#181818;stroke-width:1.0;"/></g><!--MD5=[6f2198794e2208321656849b733332ca]
reverse link projects_cours to list_cours--><g id="link_projects_cours_list_cours"><path d="M589.23,435.62 C599,434.14 608.77,433.48 618.54,433.65 " fill="none" id="projects_cours-backto-list_cours" style="stroke:#181818;stroke-width:1.0;"/><polygon fill="#181818" points="584.12,436.48,593.6517,438.9594,589.0531,435.665,592.3476,431.0664,584.12,436.48" style="stroke:#181818;stroke-width:1.0;"/></g><!--MD5=[4256b439d0407424f56eb73a230644a5]
reverse link projects_user to projects_cours--><g id="link_projects_user_projects_cours"><path d="M427.9,473 C437.82,473.02 447.74,472.57 457.65,471.66 " fill="none" id="projects_user-backto-projects_cours" style="stroke:#181818;stroke-width:1.0;"/><polygon fill="#181818" points="422.72,472.95,431.6737,477.0526,427.7197,473.0071,431.7651,469.0531,422.72,472.95" style="stroke:#181818;stroke-width:1.0;"/></g><!--MD5=[ff0025ed6bee885db67cd9ba4880e5c8]
link projects_user to projects_cours--><g id="link_projects_user_projects_cours"><path d="M422.72,446.05 C432.64,445.87 442.55,446.16 452.47,446.91 " fill="none" id="projects_user-to-projects_cours" style="stroke:#181818;stroke-width:1.0;"/><polygon fill="#181818" points="457.65,447.34,449.0121,442.6085,452.6672,446.926,448.3497,450.581,457.65,447.34" style="stroke:#181818;stroke-width:1.0;"/></g><!--MD5=[55adea3cc51f9675a4501f320f7621d7]
reverse link fichiers to projects_cours--><g id="link_fichiers_projects_cours"><path d="M390.75,359.77 C414.24,377.58 448.87,403.83 476.53,424.79 " fill="none" id="fichiers-backto-projects_cours" style="stroke:#181818;stroke-width:1.0;"/><polygon fill="#181818" points="386.49,356.55,391.221,365.1882,390.4658,359.5819,396.0721,358.8268,386.49,356.55" style="stroke:#181818;stroke-width:1.0;"/></g><!--MD5=[96a69e3a4d489e5a6e45731aabc78c51]
link recherche to projects_cours--><g id="link_recherche_projects_cours"><path d="M797.18,356.52 C746.52,373.1 668.07,399.48 601,425 C597.06,426.5 593.02,428.08 588.95,429.69 " fill="none" id="recherche-to-projects_cours" style="stroke:#181818;stroke-width:1.0;"/><polygon fill="#181818" points="584.17,431.6,594.0119,431.9714,588.8124,429.743,591.0407,424.5436,584.17,431.6" style="stroke:#181818;stroke-width:1.0;"/></g><!--MD5=[d4fa09ab539dc80cb4e8dedb001d762a]
reverse link home to ajout_admin--><g id="link_home_ajout_admin"><path d="M509.16,44.18 C472,61.14 416.97,86.25 380.56,102.86 " fill="none" id="home-backto-ajout_admin" style="stroke:#181818;stroke-width:1.0;"/><polygon fill="#181818" points="514.05,41.95,504.2016,42.0444,509.5006,44.0244,507.5206,49.3234,514.05,41.95" style="stroke:#181818;stroke-width:1.0;"/></g><!--MD5=[b21e88e607da1dad191b67c5e42398c5]
reverse link home to prof_cours--><g id="link_home_prof_cours"><path d="M509.43,34.45 C437.36,49.85 283.43,82.74 188.81,102.95 " fill="none" id="home-backto-prof_cours" style="stroke:#181818;stroke-width:1.0;"/><polygon fill="#181818" points="514.47,33.38,504.8333,31.3469,509.5802,34.4237,506.5033,39.1706,514.47,33.38" style="stroke:#181818;stroke-width:1.0;"/></g><!--MD5=[f1cd79569f03a0442b5b70b0b6e55467]
reverse link fichiers to projects_user--><g id="link_fichiers_projects_user"><path d="M358.81,361.56 C353.37,384.67 344.95,420.47 340,441.48 " fill="none" id="fichiers-backto-projects_user" style="stroke:#181818;stroke-width:1.0;"/><polygon fill="#181818" points="359.99,356.55,354.0401,364.3985,358.848,361.4178,361.8286,366.2257,359.99,356.55" style="stroke:#181818;stroke-width:1.0;"/></g><!--MD5=[c38f40cb5d4a9ffc854e7ab86fc766c0]
link change_password to connexion--><!--MD5=[a92a93dff7603e3d41837256f924d7a2]
link home to this_projects_user--><!--MD5=[53aec9e9150fb26998035b9bd318f185]
@startuml plan_site
agent "Accueil" as home
agent "Créer un compte" as creer_compte
agent "Se connecter" as connexion
agent "Projets d'un utilisateur" as projects_user
agent "Projets de l'utilisateur\nconnecté" as this_projects_user
agent "Liste de cours associés\nà un enseignant" as list_cours
agent "Liste de cours associés\nà l'enseignant connecté" as this_list_cours
agent "Projets dans le \ncadre\nd'un cours" as projects_cours
agent "Déposer un nouveau projet" as depot_project
agent "Fichiers d'un projet" as fichiers
agent "Rechercher un cours" as recherche
agent "Ajouter un administrateur" as ajout_admin
agent "Renseigner un enseignant" as prof_cours
agent "Vérifier l'email" as email_verif
agent "Changer de mot de passe" as change_password

home -down-> creer_compte
home -down-> connexion
' home -> home

creer_compte -down-> this_projects_user
' creer_compte -> creer_compte
' creer_compte -> home
' creer_compte -> connexion

' connexion -> creer_compte
connexion -right-> email_verif
connexion -down-> this_projects_user
' connexion -> home
' connexion -> connexion

email_verif -left-> change_password
' email_verif -> home
' email_verif -> creer_compte
' email_verif -> connexion

change_password -left-> home
' change_password -> creer_compte
' change_password -> connexion

' this_projects_user -> home
this_projects_user -> projects_user
' this_projects_user -> this_projects_user
this_projects_user -right-> this_list_cours
this_projects_user -left-> depot_project
this_projects_user -down-> projects_cours
this_projects_user -down-> fichiers
this_projects_user -down-> recherche
this_projects_user -up-> ajout_admin
this_projects_user -up-> prof_cours

this_list_cours -> projects_cours
' this_list_cours -> home
' this_list_cours -> this_projects_user
' this_list_cours -> this_list_cours
' this_list_cours -> depot_project
' this_list_cours -> recherche
' this_list_cours -> ajout_admin
' this_list_cours -> prof_cours

depot_project -right-> this_projects_user
' depot_project -> home
' depot_project -> this_list_cours
' depot_project -> depot_project
' depot_project -> recherche
' depot_project -> ajout_admin
' depot_project -> prof_cours

projects_cours -right-> list_cours
projects_cours -left-> projects_user
' projects_cours -> projects_cours
projects_cours -up-> fichiers
' projects_cours -> home
' projects_cours -> this_projects_user
' projects_cours -> this_list_cours
' projects_cours -> depot_project
' projects_cours -> recherche
' projects_cours -> ajout_admin
' projects_cours -> prof_cours

recherche -down-> projects_cours
' recherche -> home
' recherche -> this_projects_user
' recherche -> this_list_cours
' recherche -> depot_project
' recherche -> recherche
' recherche -> ajout_admin
' recherche -> prof_cours

ajout_admin -up-> home
' ajout_admin -> this_projects_user
' ajout_admin -> this_list_cours
' ajout_admin -> depot_project
' ajout_admin -> recherche
' ajout_admin -> ajout_admin
' ajout_admin -> prof_cours

prof_cours -up-> home
' prof_cours -> this_projects_user
' prof_cours -> this_list_cours
' prof_cours -> depot_project
' prof_cours -> recherche
' prof_cours -> ajout_admin
' prof_cours -> prof_cours

' fichiers -> home
' fichiers -> this_projects_user
' fichiers -> this_list_cours
' fichiers -> depot_project
' fichiers -> recherche
' fichiers -> ajout_admin
' fichiers -> prof_cours

' projects_user -> projects_user
projects_user -right-> projects_cours
projects_user -up-> fichiers
' projects_user -> home
' projects_user -> this_projects_user
' projects_user -> this_list_cours
' projects_user -> depot_project
' projects_user -> recherche
' projects_user -> ajout_admin
' projects_user -> prof_cours

list_cours -left-> projects_cours
' list_cours -> home
' list_cours -> this_projects_user
' list_cours -> this_list_cours
' list_cours -> depot_project
' list_cours -> recherche
' list_cours -> ajout_admin
' list_cours -> prof_cours

connexion -[hidden]up- change_password
this_projects_user -[hidden]up- home


@enduml

@startuml plan_site
agent "Accueil" as home
agent "Créer un compte" as creer_compte
agent "Se connecter" as connexion
agent "Projets d'un utilisateur" as projects_user
agent "Projets de l'utilisateur\nconnecté" as this_projects_user
agent "Liste de cours associés\nà un enseignant" as list_cours
agent "Liste de cours associés\nà l'enseignant connecté" as this_list_cours
agent "Projets dans le \ncadre\nd'un cours" as projects_cours
agent "Déposer un nouveau projet" as depot_project
agent "Fichiers d'un projet" as fichiers
agent "Rechercher un cours" as recherche
agent "Ajouter un administrateur" as ajout_admin
agent "Renseigner un enseignant" as prof_cours
agent "Vérifier l'email" as email_verif
agent "Changer de mot de passe" as change_password

home -down-> creer_compte
home -down-> connexion

creer_compte -down-> this_projects_user

connexion -right-> email_verif
connexion -down-> this_projects_user

email_verif -left-> change_password

change_password -left-> home

this_projects_user -> projects_user
this_projects_user -right-> this_list_cours
this_projects_user -left-> depot_project
this_projects_user -down-> projects_cours
this_projects_user -down-> fichiers
this_projects_user -down-> recherche
this_projects_user -up-> ajout_admin
this_projects_user -up-> prof_cours

this_list_cours -> projects_cours

depot_project -right-> this_projects_user

projects_cours -right-> list_cours
projects_cours -left-> projects_user
projects_cours -up-> fichiers

recherche -down-> projects_cours

ajout_admin -up-> home

prof_cours -up-> home


projects_user -right-> projects_cours
projects_user -up-> fichiers

list_cours -left-> projects_cours

connexion -[hidden]up- change_password
this_projects_user -[hidden]up- home


@enduml

PlantUML version 1.2022.7(Mon Aug 22 19:01:30 CEST 2022)
(GPL source distribution)
Java Runtime: Java(TM) SE Runtime Environment
JVM: Java HotSpot(TM) 64-Bit Server VM
Default Encoding: UTF-8
Language: en
Country: US
--></g></svg>