<?xml version="1.0" encoding="utf-8"?>
<svg version="1.1" xmlns:xlink="http://www.w3.org/1999/xlink" width="30px" height="30px" xmlns="http://www.w3.org/2000/svg">
  <g transform="matrix(1 0 0 1 -19 -10 )">
    <path d="M 6.5625 8.4375  C 6.5625 13.095703125  10.341796875 16.875  15 16.875  C 19.658203125 16.875  23.4375 13.095703125  23.4375 8.4375  C 23.4375 3.779296875  19.658203125 0  15 0  C 10.341796875 0  6.5625 3.779296875  6.5625 8.4375  Z M 30 26.25  C 30 22.107422053813934  26.642577946186066 18.75  22.5 18.75  C 22.5 18.75  19.27148401737213 18.75  19.27148401737213 18.75  C 17.970702722668648 19.34765623882413  16.5234375 19.6875  15 19.6875  C 13.4765625 19.6875  12.035156562924385 19.34765623882413  10.728515982627869 18.75  C 10.728515982627869 18.75  7.5 18.75  7.5 18.75  C 3.3574220538139343 18.75  0 22.107422053813934  0 26.25  C 0 26.25  0 27.1875  0 27.1875  C 0 28.740234375  1.259765625 30  2.8125 30  C 2.8125 30  27.1875 30  27.1875 30  C 28.740234375 30  30 28.740234375  30 27.1875  C 30 27.1875  30 26.25  30 26.25  Z " fill-rule="nonzero" fill="#404040" stroke="none" transform="matrix(1 0 0 1 19 10 )" />
  </g>
</svg>