<?xml version="1.0" encoding="utf-8"?>
<svg version="1.1" xmlns:xlink="http://www.w3.org/1999/xlink" width="25px" height="25px" xmlns="http://www.w3.org/2000/svg">
  <g transform="matrix(1 0 0 1 -37 -13 )">
    <path d="M 9.375 1.171875  C 9.375 0.5224609281867743  9.897460928186774 0  10.546875 0  C 10.546875 0  14.453125 0  14.453125 0  C 15.102539071813226 0  15.625 0.5224609281867743  15.625 1.171875  C 15.625 1.171875  15.625 9.375  15.625 9.375  C 15.625 9.375  19.907227158546448 9.375  19.907227158546448 9.375  C 20.776367746293545 9.375  21.210936922580004 10.424804966896772  20.595702528953552 11.040039360523224  C 20.595702528953552 11.040039360523224  13.168945908546448 18.471679091453552  13.168945908546448 18.471679091453552  C 12.802734971046448 18.837890028953552  12.202148139476776 18.837890028953552  11.835937201976776 18.471679091453552  C 11.835937201976776 18.471679091453552  4.399413987994194 11.040039360523224  4.399413987994194 11.040039360523224  C 3.7841795943677425 10.424804966896772  4.218749888241291 9.375  5.087890475988388 9.375  C 5.087890475988388 9.375  9.375 9.375  9.375 9.375  C 9.375 9.375  9.375 1.171875  9.375 1.171875  Z M 23.828125 17.1875  C 24.477539071813226 17.1875  25 17.709960928186774  25 18.359375  C 25 18.359375  25 23.828125  25 23.828125  C 25 24.477539071813226  24.477539071813226 25  23.828125 25  C 23.828125 25  1.171875 25  1.171875 25  C 0.5224609281867743 25  0 24.477539071813226  0 23.828125  C 0 23.828125  0 18.359375  0 18.359375  C 0 17.709960928186774  0.5224609281867743 17.1875  1.171875 17.1875  C 1.171875 17.1875  8.334960788488388 17.1875  8.334960788488388 17.1875  C 8.334960788488388 17.1875  10.727538913488388 19.580078125  10.727538913488388 19.580078125  C 11.70898424461484 20.56152345612645  13.2910150103271 20.56152345612645  14.272460341453552 19.580078125  C 14.272460341453552 19.580078125  16.665038466453552 17.1875  16.665038466453552 17.1875  C 16.665038466453552 17.1875  23.828125 17.1875  23.828125 17.1875  Z M 17.96875 23.6328125  C 18.505859375 23.6328125  18.9453125 23.193359375  18.9453125 22.65625  C 18.9453125 22.119140625  18.505859375 21.6796875  17.96875 21.6796875  C 17.431640625 21.6796875  16.9921875 22.119140625  16.9921875 22.65625  C 16.9921875 23.193359375  17.431640625 23.6328125  17.96875 23.6328125  Z M 21.09375 23.6328125  C 21.630859375 23.6328125  22.0703125 23.193359375  22.0703125 22.65625  C 22.0703125 22.119140625  21.630859375 21.6796875  21.09375 21.6796875  C 20.556640625 21.6796875  20.1171875 22.119140625  20.1171875 22.65625  C 20.1171875 23.193359375  20.556640625 23.6328125  21.09375 23.6328125  Z " fill-rule="nonzero" fill="#f7f7f7" stroke="none" transform="matrix(1 0 0 1 37 13 )" />
  </g>
</svg>