<?xml version="1.0" encoding="utf-8"?>
<svg version="1.1" xmlns:xlink="http://www.w3.org/1999/xlink" width="25px" height="19px" xmlns="http://www.w3.org/2000/svg">
  <g transform="matrix(1 0 0 1 -416 -205 )">
    <path d="M 8.491109213694777 18.626840565308868  C 8.491109213694777 18.626840565308868  0.3661014138607753 10.34615988085972  0.3661014138607753 10.34615988085972  C -0.12203380462025845 9.848672151894588  -0.12203380462025845 9.042052540647141  0.3661014138607753 8.544515027856361  C 0.3661014138607753 8.544515027856361  2.1338276425744462 6.742869415519154  2.1338276425744462 6.742869415519154  C 2.62196286105548 6.245331902728375  3.4134674774396205 6.245331902728375  3.9016026959206545 6.742869415519154  C 3.9016026959206545 6.742869415519154  9.374997019764919 12.321082440796339  9.374997019764919 12.321082440796339  C 9.374997019764919 12.321082440796339  21.09839693154996 0.3731157967238501  21.09839693154996 0.3731157967238501  C 21.586532150030994 -0.12437193224128336  22.378037325209213 -0.12437193224128336  22.866172543690247 0.3731157967238501  C 22.866172543690247 0.3731157967238501  24.633898981951695 2.1747610056649505  24.633898981951695 2.1747610056649505  C 25.12203420043273 2.672248734630084  25.12203420043273 3.4788683458775287  24.633898981951695 3.9764058586683073  C 24.633898981951695 3.9764058586683073  10.258884825835061 18.62689068134307  10.258884825835061 18.62689068134307  C 9.770700759438403 19.124378410308204  8.979244432175811 19.124378078099642  8.491109213694777 18.626840565308868  Z " fill-rule="nonzero" fill="#f7f7f7" stroke="none" transform="matrix(1 0 0 1 416 205 )" />
  </g>
</svg>