<?xml version="1.0" encoding="utf-8"?>
<svg version="1.1" xmlns:xlink="http://www.w3.org/1999/xlink" width="20px" height="18px" xmlns="http://www.w3.org/2000/svg">
  <g transform="matrix(1 0 0 1 -746 -375 )">
    <path d="M 20 8.357142857142858  C 20 3.7406249386923647  15.523437261581421 0  10 0  C 4.476562738418579 0  0 3.7406249386923647  0 8.357142857142858  C 0 10.349999938692363  0.8359375596046448 12.174107602664403  2.2265625 13.608482633318221  C 1.73828125 15.633482694625854  0.10546875186264515 17.4375  0.08593750186264515 17.457589285714285  C 0 17.54999999808414  -0.023437498603016138 17.68660763331822  0.027343749534338713 17.807143347603933  C 0.07812499767169356 17.92767906188965  0.18749999813735485 18  0.3125 18  C 2.9023438692092896 18  4.843750223517418 16.72232168912888  5.804687738418579 15.934821673801968  C 7.0820315182209015 16.429018110036854  8.499999940395355 16.714285714285715  10 16.714285714285715  C 15.523437261581421 16.714285714285715  20 12.97366077559335  20 8.357142857142858  Z M 6.25 8.357142857142858  C 6.25 9.068303602082388  5.691406279802322 9.642857142857142  5 9.642857142857142  C 4.308593720197678 9.642857142857142  3.75 9.068303602082388  3.75 8.357142857142858  C 3.75 7.645982112203325  4.308593720197678 7.071428571428572  5 7.071428571428572  C 5.691406279802322 7.071428571428572  6.25 7.645982112203325  6.25 8.357142857142858  Z M 11.25 8.357142857142858  C 11.25 9.068303602082388  10.691406279802322 9.642857142857142  10 9.642857142857142  C 9.308593720197678 9.642857142857142  8.75 9.068303602082388  8.75 8.357142857142858  C 8.75 7.645982112203325  9.308593720197678 7.071428571428572  10 7.071428571428572  C 10.691406279802322 7.071428571428572  11.25 7.645982112203325  11.25 8.357142857142858  Z M 16.25 8.357142857142858  C 16.25 9.068303602082388  15.691406279802322 9.642857142857142  15 9.642857142857142  C 14.308593720197678 9.642857142857142  13.75 9.068303602082388  13.75 8.357142857142858  C 13.75 7.645982112203325  14.308593720197678 7.071428571428572  15 7.071428571428572  C 15.691406279802322 7.071428571428572  16.25 7.645982112203325  16.25 8.357142857142858  Z " fill-rule="nonzero" fill="#404040" stroke="none" transform="matrix(1 0 0 1 746 375 )" />
  </g>
</svg>