<?xml version="1.0" encoding="utf-8"?>
<svg version="1.1" xmlns:xlink="http://www.w3.org/1999/xlink" width="25px" height="25px" xmlns="http://www.w3.org/2000/svg">
  <g transform="matrix(1 0 0 1 -28 -12 )">
    <path d="M 15.947879182786744 9.052302558798678  C 18.865213943174826 11.972658224400092  18.825174140971694 16.654727879089588  15.965456596721792 19.530308248408797  C 15.960085501720325 19.53616761210198  15.953738559052763 19.5425165082019  15.947879182786744 19.54837587189508  C 15.947879182786744 19.54837587189508  12.666627804429007 22.82961871935135  12.666627804429007 22.82961871935135  C 9.772584123333484 25.723656190514678  5.064136997255563 25.723265594571888  2.170532714255503 22.82961871935135  C -0.723510966840021 19.936069632814633  -0.723510966840021 15.227095237848303  2.170532714255503 12.333546151311586  C 2.170532714255503 12.333546151311586  3.9823496895670147 10.521733063730117  3.9823496895670147 10.521733063730117  C 4.462818561570301 10.041265222699218  5.290260094270654 10.360600688950894  5.315064788476179 11.039603306811701  C 5.346705421113026 11.904933693535435  5.5018813661128565 12.774316443316568  5.78820955174197 13.613865635174493  C 5.885182228271524 13.898142438013375  5.815895240632055 14.212594942753723  5.603492850897992 14.42499687672257  C 5.603492850897992 14.42499687672257  4.964478752488793 15.06400811384561  4.964478752488793 15.06400811384561  C 3.5960214404216866 16.432462489527484  3.553101522469884 18.660682051371  4.908082314272479 20.042515315980307  C 6.276442023710496 21.437971661830353  8.525563480839368 21.446271406520307  9.904421247105896 20.06741659895592  C 9.904421247105896 20.06741659895592  13.18567113534716 16.786661018541302  13.18567113534716 16.786661018541302  C 14.562185134663613 15.410149972897818  14.556423413049796 13.185253270530422  13.18567113534716 11.81450393413747  C 13.004958202847561 11.634133184137976  12.822926738457053 11.493996726623461  12.680739207444002 11.396096517140355  C 12.58014970972978 11.327021879618233  12.497096135520014 11.235395600003946  12.438201889563057 11.128526561686398  C 12.3793076436061 11.021657523368852  12.346203888667581 10.902503292703308  12.341531328327973 10.780570210322933  C 12.322195386322699 10.264604378575676  12.505007070751684 9.73291598911216  12.912722030334958 9.32520190438861  C 12.912722030334958 9.32520190438861  13.940750405967334 8.297128051036736  13.940750405967334 8.297128051036736  C 14.210330543894898 8.027548491564291  14.633230279299386 7.994442947563569  14.945828007657052 8.212606590782947  C 15.303820574449437 8.462581474923658  15.639130052753996 8.743563264778288  15.947879182786744 9.052302558798678  Z M 22.82947250115216 2.1703816531769693  C 19.935868218152102 -0.7232652220435676  15.227421092074177 -0.7236558179863586  12.333377410978654 2.1703816531769693  C 12.333377410978654 2.1703816531769693  9.052126032620915 5.451625245689877  9.052126032620915 5.451625245689877  C 9.046266656354899 5.4574846093830605  9.039918968629099 5.463832015369699  9.034547873627634 5.469691379062883  C 6.174879130692275 8.345271748382094  6.134791272232836 13.027343265713185  9.052126032620915 15.9476989313146  C 9.360856932009918 16.256424278806037  9.696150833940706 16.537388932357977  10.054128778965183 16.787344980535547  C 10.366726507322849 17.00550862375492  10.789675812383189 16.97235500031799  11.05920712571314 16.702824265338393  C 11.05920712571314 16.702824265338393  12.087234756287277 15.674750411986519  12.087234756287277 15.674750411986519  C 12.49494971587055 15.26703632726297  12.677760655241299 14.735347937799453  12.658424713236025 14.219382106052198  C 12.653752152896416 14.097449023671821  12.620649143016132 13.97829479300628  12.561754897059178 13.871425754688731  C 12.502860651102221 13.764556716371182  12.419806331834216 13.672929691700256  12.319216834119997 13.603855054178135  C 12.177029303106945 13.505954844695031  11.994997838716438 13.365818387180514  11.814284906216837 13.185447637181019  C 10.443532628514202 11.814698300788068  10.437770906900385 9.589800853364032  11.814284906216837 8.213289807720551  C 11.814284906216837 8.213289807720551  15.095535539516339 4.932534227305933  15.095535539516339 4.932534227305933  C 16.47439330578287 3.5536794197415453  18.723465216538955 3.561980282016455  20.09187372729152 4.9574366278665005  C 21.446854519094117 6.33926989247581  21.403983495589138 8.567489081791006  20.035477289075207 9.93594345747288  C 20.035477289075207 9.93594345747288  19.39646468078248 10.574955439652559  19.39646468078248 10.574955439652559  C 19.184062291048416 10.787357373621406  19.11477418582159 11.101809878361756  19.211746862351145 11.386086681200636  C 19.498075047980258 12.225635873058561  19.65325099298009 13.095017877783055  19.68489162561694 13.96034826450679  C 19.709745147330462 14.639350882367596  20.537138225051933 14.958687093675913  21.01760709705522 14.478219252645012  C 21.01760709705522 14.478219252645012  22.829423327308497 12.666405420006905  22.829423327308497 12.666405420006905  C 25.72351580971856 9.772905134680014  25.72351618224768 5.063930739713689  22.82947250115216 2.1703816531769693  Z " fill-rule="nonzero" fill="#404040" stroke="none" transform="matrix(1 0 0 1 28 12 )" />
  </g>
</svg>