<?xml version="1.0" encoding="utf-8"?>
<svg version="1.1" xmlns:xlink="http://www.w3.org/1999/xlink" width="19px" height="25px" xmlns="http://www.w3.org/2000/svg">
  <g transform="matrix(1 0 0 1 -29 -13 )">
    <path d="M 8.901301781336468 10.214843600988388  C 9.316926762461662 10.214843600988388  9.277343443284433 12.016601860523224  9.0002601146698 12.504883110523224  C 8.752864281336468 11.723633110523224  8.757812193284433 10.214843600988388  8.901301781336468 10.214843600988388  Z M 10.6231769323349 16.801758110523224  C 9.994791525105635 16.333008091896772  9.391145701209705 15.6591790728271  8.9161456823349 14.809569716453552  C 8.535156108438969 15.795897878706455  8.060156419873238 16.92382814362645  7.510937650998433 17.87109375  C 8.416406363248825 17.529296875  9.44062486787637 17.031250288709998  10.6231769323349 16.801758110523224  Z M 5.986979166666667 18.940429389476776  C 5.655468759437402 19.248046586290002  4.547135350604853 20.13671905733645  4.260156174500784 20.903320610523224  C 4.260156174500784 20.9423831111053  4.913281212250392 20.639648102223873  5.986979166666667 18.940429389476776  Z M 11.083333333333334 6.640625  C 11.083333333333334 7.285156240686774  11.617708342770735 7.8125  12.270833333333334 7.8125  C 12.270833333333334 7.8125  19 7.8125  19 7.8125  C 19 7.8125  19 23.828125  19 23.828125  C 19 24.477539071813226  18.47057292610407 25  17.8125 25  C 17.8125 25  1.1875 25  1.1875 25  C 0.5294270738959312 25  0 24.477539071813226  0 23.828125  C 0 23.828125  0 1.171875  0 1.171875  C 0 0.5224609281867743  0.5294270738959312 0  1.1875 0  C 1.1875 0  11.083333333333334 0  11.083333333333334 0  C 11.083333333333334 0  11.083333333333334 6.640625  11.083333333333334 6.640625  Z M 11.875 16.201171278953552  C 10.885416666666666 15.605468163266778  10.227343882123629 14.785156212747097  9.762239734331766 13.57421875  C 9.984895984331766 12.6708984375  10.336197921385368 11.298828292638063  10.069010416666666 10.439453274011612  C 9.836458342770735 9.003906417638063  7.971093603720267 9.145507775247097  7.703906099001567 10.107421875  C 7.456510265668233 11.000976525247097  7.684114734331767 12.260742112994194  8.104687650998432 13.8671875  C 7.530729298790296 15.214843768626451  6.6846354355414705 17.02148374170065  6.0859375 18.056640028953552  C 6.080989583259604 18.056640028953552  6.080989734405496 18.061523139476776  6.0760418176651 18.061523139476776  C 4.735156382123629 18.740234058350325  2.434375132123629 20.234374701976776  3.3794272343317666 21.381835639476776  C 3.656510562946399 21.71874970663339  4.171093900998434 21.870116889476776  4.4432293176651 21.870116889476776  C 5.3289063821236295 21.870116889476776  6.209635133544604 20.99121119827032  7.466405948003133 18.852539360523224  C 8.742968410253525 18.437500298023224  10.143228883544603 17.919921572320163  11.3752601146698 17.719726264476776  C 12.448958069086075 18.295898148790002  13.705728883544603 18.671874701976776  14.541926781336466 18.671874701976776  C 15.986718485752741 18.671874701976776  16.0856773853302 17.10937498137355  15.516666968663534 16.552734375  C 14.828906570871672 15.888671856373549  12.829947878917059 16.079100966453552  11.875 16.201171278953552  Z M 19 5.952148512005806  C 19 5.64453131519258  18.876302083333336 5.3466796875  18.653645833333336 5.126953125  C 18.653645833333336 5.126953125  13.8046875 0.341796875  13.8046875 0.341796875  C 13.58203125 0.1220703125  13.280208338052034 0  12.963541666666666 0  C 12.963541666666666 0  12.666666666666666 0  12.666666666666666 0  L 12.666666666666666 6.25  L 19 6.25  C 19 6.25  19 5.952148512005806  19 5.952148512005806  Z M 12.869531551996866 17.153319716453552  C 14.705208559830984 17.924804100766778  14.987239281336466 17.592772841453552  14.987239281336466 17.592772841453552  C 15.1901038599511 17.460936901625246  14.863541930913925 17.01171814929694  12.869531551996866 17.153319716453552  Z " fill-rule="nonzero" fill="#404040" stroke="none" transform="matrix(1 0 0 1 29 13 )" />
  </g>
</svg>