<?xml version="1.0" encoding="utf-8"?>
<svg version="1.1" xmlns:xlink="http://www.w3.org/1999/xlink" width="20px" height="22px" xmlns="http://www.w3.org/2000/svg">
  <g transform="matrix(1 0 0 1 -303 -220 )">
    <path d="M 20 17.875  C 20 15.596839800477028  18.08120540210179 13.75  15.714285714285715 13.75  C 14.70500000885555 13.75  13.777365684509277 14.085972175002098  13.04508890424456 14.647831559181213  C 13.04508890424456 14.647831559181213  8.469821384974889 11.895511865615845  8.469821384974889 11.895511865615845  C 8.605312779545786 11.30561126768589  8.605312779545786 10.694346114993095  8.469821384974889 10.10444551706314  C 8.469821384974889 10.10444551706314  13.04508890424456 7.35212516784668  13.04508890424456 7.35212516784668  C 13.777365684509277 7.914027497172356  14.70500000885555 8.25  15.714285714285715 8.25  C 18.08120540210179 8.25  20 6.403160199522972  20 4.125  C 20 1.846839800477028  18.08120540210179 0  15.714285714285715 0  C 13.34736602646964 0  11.42857142857143 1.846839800477028  11.42857142857143 4.125  C 11.42857142857143 4.4325703121721745  11.463839331907886 4.73214858584106  11.530178615025113 5.020511865615845  C 11.530178615025113 5.020511865615845  6.954910414559501 7.772832214832306  6.954910414559501 7.772832214832306  C 6.222633634294783 7.210972830653191  5.294999991144453 6.875  4.2857142857142865 6.875  C 1.9187945978982113 6.875  0 8.721839800477028  0 11  C 0 13.278160199522972  1.9187945978982113 15.125  4.2857142857142865 15.125  C 5.294999991144453 15.125  6.222633634294783 14.789027824997902  6.954910414559501 14.227168440818787  C 6.954910414559501 14.227168440818787  11.530178615025113 16.979488134384155  11.530178615025113 16.979488134384155  C 11.462551525660922 17.273543551564217  11.428480587325925 17.573826568201184  11.42857142857143 17.875  C 11.428571428571432 20.153160199522972  13.34736602646964 22  15.714285714285715 22  C 18.08120540210179 22  20 20.153160199522972  20 17.875  Z " fill-rule="nonzero" fill="#404040" stroke="none" transform="matrix(1 0 0 1 303 220 )" />
  </g>
</svg>