<?xml version="1.0" encoding="utf-8"?>
<svg version="1.1" xmlns:xlink="http://www.w3.org/1999/xlink" width="46px" height="46px" xmlns="http://www.w3.org/2000/svg">
  <defs>
    <mask fill="white" id="clip222">
      <path d="M 38.40990257263184 6.590097427368164  C 42.481601858139044 10.661796712875367  45 16.286796712875365  45 22.5  C 45 28.713203287124635  42.481601858139044 34.33820328712464  38.40990257263184 38.40990257263184  C 34.33820328712464 42.481601858139044  28.713203287124635 45  22.5 45  C 16.286796712875365 45  10.661796712875367 42.481601858139044  6.590097427368164 38.40990257263184  C 2.5183981418609616 34.33820328712464  0 28.713203287124635  0 22.5  C 0 16.286796712875365  2.5183981418609616 10.661796712875367  6.590097427368164 6.590097427368164  C 10.661796712875367 2.5183981418609616  16.286796712875365 0  22.5 0  C 28.713203287124635 0  34.33820328712464 2.5183981418609616  38.40990257263184 6.590097427368164  Z " fill-rule="evenodd" />
    </mask>
  </defs>
  <g transform="matrix(1 0 0 1 -29 -447 )">
    <path d="M 38.40990257263184 6.590097427368164  C 42.481601858139044 10.661796712875367  45 16.286796712875365  45 22.5  C 45 28.713203287124635  42.481601858139044 34.33820328712464  38.40990257263184 38.40990257263184  C 34.33820328712464 42.481601858139044  28.713203287124635 45  22.5 45  C 16.286796712875365 45  10.661796712875367 42.481601858139044  6.590097427368164 38.40990257263184  C 2.5183981418609616 34.33820328712464  0 28.713203287124635  0 22.5  C 0 16.286796712875365  2.5183981418609616 10.661796712875367  6.590097427368164 6.590097427368164  C 10.661796712875367 2.5183981418609616  16.286796712875365 0  22.5 0  C 28.713203287124635 0  34.33820328712464 2.5183981418609616  38.40990257263184 6.590097427368164  Z " fill-rule="nonzero" fill="#e5e5e5" stroke="none" transform="matrix(1 0 0 1 29 447 )" />
    <path d="M 38.40990257263184 6.590097427368164  C 42.481601858139044 10.661796712875367  45 16.286796712875365  45 22.5  C 45 28.713203287124635  42.481601858139044 34.33820328712464  38.40990257263184 38.40990257263184  C 34.33820328712464 42.481601858139044  28.713203287124635 45  22.5 45  C 16.286796712875365 45  10.661796712875367 42.481601858139044  6.590097427368164 38.40990257263184  C 2.5183981418609616 34.33820328712464  0 28.713203287124635  0 22.5  C 0 16.286796712875365  2.5183981418609616 10.661796712875367  6.590097427368164 6.590097427368164  C 10.661796712875367 2.5183981418609616  16.286796712875365 0  22.5 0  C 28.713203287124635 0  34.33820328712464 2.5183981418609616  38.40990257263184 6.590097427368164  Z " stroke-width="2" stroke="#000000" fill="none" stroke-opacity="0.30196078431372547" transform="matrix(1 0 0 1 29 447 )" mask="url(#clip222)" />
    <path d="M 22.5 22.5  L 38.40990257263184 6.590097427368164  M 22.5 22.5  L 6.590097427368164 38.40990257263184  M 22.5 22.5  L 38.40990257263184 38.40990257263184  M 22.5 22.5  L 6.590097427368164 6.590097427368164  " stroke-width="1" stroke="#000000" fill="none" stroke-opacity="0.30196078431372547" transform="matrix(1 0 0 1 29 447 )" mask="url(#clip222)" />
  </g>
</svg>