<?xml version="1.0" encoding="utf-8"?>
<svg version="1.1" xmlns:xlink="http://www.w3.org/1999/xlink" width="46px" height="44px" xmlns="http://www.w3.org/2000/svg">
  <defs>
    <mask fill="white" id="clip231">
      <path d="M 38.40990257263184 6.297204208374024  C 42.481601858139044 10.187939081192017  45 15.562939081192017  45 21.5  C 45 27.437060918807983  42.481601858139044 32.81206091880799  38.40990257263184 36.70279579162598  C 34.33820328712464 40.593530664443975  28.713203287124635 43  22.5 43  C 16.286796712875365 43  10.661796712875367 40.593530664443975  6.590097427368164 36.70279579162598  C 2.5183981418609616 32.81206091880799  0 27.437060918807983  0 21.5  C 0 15.562939081192017  2.5183981418609616 10.187939081192017  6.590097427368164 6.297204208374024  C 10.661796712875367 2.40646933555603  16.286796712875365 0  22.5 0  C 28.713203287124635 0  34.33820328712464 2.40646933555603  38.40990257263184 6.297204208374024  Z " fill-rule="evenodd" />
    </mask>
  </defs>
  <g transform="matrix(1 0 0 1 -29 -381 )">
    <path d="M 38.40990257263184 6.297204208374024  C 42.481601858139044 10.187939081192017  45 15.562939081192017  45 21.5  C 45 27.437060918807983  42.481601858139044 32.81206091880799  38.40990257263184 36.70279579162598  C 34.33820328712464 40.593530664443975  28.713203287124635 43  22.5 43  C 16.286796712875365 43  10.661796712875367 40.593530664443975  6.590097427368164 36.70279579162598  C 2.5183981418609616 32.81206091880799  0 27.437060918807983  0 21.5  C 0 15.562939081192017  2.5183981418609616 10.187939081192017  6.590097427368164 6.297204208374024  C 10.661796712875367 2.40646933555603  16.286796712875365 0  22.5 0  C 28.713203287124635 0  34.33820328712464 2.40646933555603  38.40990257263184 6.297204208374024  Z " fill-rule="nonzero" fill="#e5e5e5" stroke="none" transform="matrix(1 0 0 1 29 381 )" />
    <path d="M 38.40990257263184 6.297204208374024  C 42.481601858139044 10.187939081192017  45 15.562939081192017  45 21.5  C 45 27.437060918807983  42.481601858139044 32.81206091880799  38.40990257263184 36.70279579162598  C 34.33820328712464 40.593530664443975  28.713203287124635 43  22.5 43  C 16.286796712875365 43  10.661796712875367 40.593530664443975  6.590097427368164 36.70279579162598  C 2.5183981418609616 32.81206091880799  0 27.437060918807983  0 21.5  C 0 15.562939081192017  2.5183981418609616 10.187939081192017  6.590097427368164 6.297204208374024  C 10.661796712875367 2.40646933555603  16.286796712875365 0  22.5 0  C 28.713203287124635 0  34.33820328712464 2.40646933555603  38.40990257263184 6.297204208374024  Z " stroke-width="2" stroke="#000000" fill="none" stroke-opacity="0.30196078431372547" transform="matrix(1 0 0 1 29 381 )" mask="url(#clip231)" />
    <path d="M 22.5 21.5  L 38.40990257263184 6.297204208374024  M 22.5 21.5  L 6.590097427368164 36.70279579162598  M 22.5 21.5  L 38.40990257263184 36.70279579162598  M 22.5 21.5  L 6.590097427368164 6.297204208374024  " stroke-width="1" stroke="#000000" fill="none" stroke-opacity="0.30196078431372547" transform="matrix(1 0 0 1 29 381 )" mask="url(#clip231)" />
  </g>
</svg>