<?xml version="1.0" encoding="utf-8"?>
<svg version="1.1" xmlns:xlink="http://www.w3.org/1999/xlink" width="22px" height="19px" xmlns="http://www.w3.org/2000/svg">
  <g transform="matrix(1 0 0 1 -303 -180 )">
    <path d="M 14.849999533759226 3.0843914628519875  C 14.995138420826859 2.9433482904455244  15.231944679386086 2.9433482904455244  15.377083566453724 3.0843914628519875  C 15.377083566453724 3.0843914628519875  18.822221755981445 6.432310621852148  18.822221755981445 6.432310621852148  C 18.96736064304908 6.573353794258611  18.96736064304908 6.803476984725383  18.822221755981445 6.944520157131846  C 18.822221755981445 6.944520157131846  10.480555322435167 15.050791349604886  10.480555322435167 15.050791349604886  C 10.480555322435167 15.050791349604886  6.9361113442315006 15.433092131788484  6.9361113442315006 15.433092131788484  C 6.4625002476904125 15.485055405600095  6.061458567364349 15.095330832102107  6.114930788675944 14.635084698948768  C 6.114930788675944 14.635084698948768  6.508333100212946 11.190662372147651  6.508333100212946 11.190662372147651  C 6.508333100212946 11.190662372147651  14.849999533759226 3.0843914628519875  14.849999533759226 3.0843914628519875  Z M 21.56458240085178 2.2344208402689434  C 21.56458240085178 2.2344208402689434  19.70069397820367 0.4231295083700972  19.70069397820367 0.4231295083700972  C 19.120138429933128 -0.1410431812557563  18.176736351516514 -0.1410431812557563  17.592361344231502 0.4231295083700972  C 17.592361344231502 0.4231295083700972  16.240278244018555 1.7370581531267044  16.240278244018555 1.7370581531267044  C 16.09513935695092 1.878101325533168  16.09513935695092 2.108224374411252  16.240278244018555 2.2492675468177152  C 16.240278244018555 2.2492675468177152  19.685417599148224 5.597186564229189  19.685417599148224 5.597186564229189  C 19.83055648621586 5.7382297366356525  20.067361579173145 5.7382297366356525  20.21250046624078 5.597186564229189  C 20.21250046624078 5.597186564229189  21.56458240085178 4.283258556621674  21.56458240085178 4.283258556621674  C 22.145137949122322 3.7153741903586273  22.145137949122322 2.798593529894797  21.56458240085178 2.2344208402689434  Z M 14.800347222222223 12.53057275336461  C 14.716319442623192 12.61594098859621  14.666666666666668 12.727290862945939  14.666666666666668 12.84606406402217  C 14.666666666666668 12.84606406402217  14.666666666666668 16.624536013872472  14.666666666666668 16.624536013872472  L 2.4444444444444446 16.624536013872472  L 2.4444444444444446 4.747216366412207  C 2.4444444444444446 4.747216366412207  11.221527311537002 4.747216366412207  11.221527311537002 4.747216366412207  C 11.343749535580478 4.747216366412207  11.45833286891381 4.69896475596385  11.54618008931478 4.617308179670858  C 11.54618008931478 4.617308179670858  13.073957867092556 3.1326431883411523  13.073957867092556 3.1326431883411523  C 13.36423564122783 2.8505568435282256  13.157985637585323 2.3717523802846783  12.74930508931478 2.3717523802846783  C 12.74930508931478 2.3717523802846783  1.8333333333333335 2.3717523802846783  1.8333333333333335 2.3717523802846783  C 0.8211805555555556 2.3717523802846783  0 3.1697598131243954  0 4.153350369880325  C 0 4.153350369880325  0 17.218402010404354  0 17.218402010404354  C 0 18.201992567160282  0.8211805555555556 19  1.8333333333333335 19  C 1.8333333333333335 19  15.27777777777778 19  15.27777777777778 19  C 16.289930555555557 19  17.111111111111114 18.201992567160282  17.111111111111114 17.218402010404354  C 17.111111111111114 17.218402010404354  17.111111111111114 11.361399072692468  17.111111111111114 11.361399072692468  C 17.111111111111114 10.964251194591206  16.618402774135273 10.767533076160586  16.328125 11.045907762034906  C 16.328125 11.045907762034906  14.800347222222223 12.53057275336461  14.800347222222223 12.53057275336461  Z " fill-rule="nonzero" fill="#404040" stroke="none" transform="matrix(1 0 0 1 303 180 )" />
  </g>
</svg>