<?xml version="1.0" encoding="utf-8"?>
<svg version="1.1" xmlns:xlink="http://www.w3.org/1999/xlink" width="14px" height="17px" xmlns="http://www.w3.org/2000/svg">
  <g transform="matrix(1 0 0 1 -252 -176 )">
    <path d="M 14 9.03125  C 14 8.1513671875  13.328125 7.4375  12.5 7.4375  C 12.5 7.4375  11.750000000000002 7.4375  11.750000000000002 7.4375  C 11.750000000000002 7.4375  11.750000000000002 5.046875  11.750000000000002 5.046875  C 11.750000000000002 2.264453023672104  9.618750095367432 0  7 0  C 4.3812499046325675 0  2.25 2.264453023672104  2.25 5.046875  C 2.25 5.046875  2.25 7.4375  2.25 7.4375  C 2.25 7.4375  1.5 7.4375  1.5 7.4375  C 0.671875 7.4375  0 8.1513671875  0 9.03125  C 0 9.03125  0 15.40625  0 15.40625  C 0 16.2861328125  0.671875 17  1.5 17  C 1.5 17  12.5 17  12.5 17  C 13.328125 17  14 16.2861328125  14 15.40625  C 14 15.40625  14 9.03125  14 9.03125  Z M 9.25 5.046875  C 9.25 5.046875  9.25 7.4375  9.25 7.4375  L 4.75 7.4375  C 4.75 7.4375  4.75 5.046875  4.75 5.046875  C 4.75 3.728710912168026  5.759374976158142 2.65625  7 2.65625  C 8.240625023841858 2.65625  9.25 3.728710912168026  9.25 5.046875  Z " fill-rule="nonzero" fill="#009621" stroke="none" transform="matrix(1 0 0 1 252 176 )" />
  </g>
</svg>