<?xml version="1.0" encoding="utf-8"?>
<svg version="1.1" xmlns:xlink="http://www.w3.org/1999/xlink" width="20px" height="14px" xmlns="http://www.w3.org/2000/svg">
  <g transform="matrix(1 0 0 1 -217 -178 )">
    <path d="M 1 4  C 1 5.103124976158142  1.896875023841858 6  3 6  C 4.103124976158142 6  5 5.103124976158142  5 4  C 5 2.896875023841858  4.103124976158142 2  3 2  C 1.896875023841858 2  1 2.896875023841858  1 4  Z M 15 4  C 15 5.103124976158142  15.896875023841858 6  17 6  C 18.103124976158142 6  19 5.103124976158142  19 4  C 19 2.896875023841858  18.103124976158142 2  17 2  C 15.896875023841858 2  15 2.896875023841858  15 4  Z M 20 9  C 20 7.896875023841858  19.103124976158142 7  18 7  C 18 7  16 7  16 7  C 15.449999988079071 7  14.953124821186066 7.221875190734864  14.590624809265137 7.581250190734863  C 15.849999785423279 8.271875202655792  16.743750005960464 9.518749952316284  16.9375 11  C 16.9375 11  19 11  19 11  C 19.553125023841858 11  20 10.553125023841858  20 10  C 20 10  20 9  20 9  Z M 6.5 3.5  C 6.5 5.434375047683716  8.065624952316284 7  10 7  C 11.934375047683716 7  13.5 5.434375047683716  13.5 3.5  C 13.5 1.5656249523162842  11.934375047683716 0  10 0  C 8.065624952316284 0  6.5 1.5656249523162842  6.5 3.5  Z M 16 11.600000381469727  C 16 9.612500429153442  14.387499570846558 8  12.399999618530273 8  C 12.399999618530273 8  12.140625 8  12.140625 8  C 11.490625023841858 8.3125  10.768750011920929 8.5  10 8.5  C 9.231249988079071 8.5  8.512499988079071 8.3125  7.859375 8  C 7.859375 8  7.599999904632568 8  7.599999904632568 8  C 5.612499952316284 8  4 9.612500429153442  4 11.600000381469727  C 4 11.600000381469727  4 12.5  4 12.5  C 4 13.328125  4.671875 14  5.5 14  C 5.5 14  14.5 14  14.5 14  C 15.328125 14  16 13.328125  16 12.5  C 16 12.5  16 11.600000381469727  16 11.600000381469727  Z M 3.059375047683716 11  C 3.2562500536441803 9.518749952316284  4.150000214576721 8.271875202655792  5.409375190734863 7.581250190734863  C 5.046875178813934 7.221875190734864  4.550000011920929 7  4 7  C 4 7  2 7  2 7  C 0.8968750238418579 7  0 7.896875023841858  0 9  C 0 9  0 10  0 10  C 0 10.553125023841858  0.4468749761581421 11  1 11  C 1 11  3.059375047683716 11  3.059375047683716 11  Z " fill-rule="nonzero" fill="#ffffff" stroke="none" transform="matrix(1 0 0 1 217 178 )" />
  </g>
</svg>