<?xml version="1.0" encoding="utf-8"?>
<svg version="1.1" xmlns:xlink="http://www.w3.org/1999/xlink" width="23px" height="15px" xmlns="http://www.w3.org/2000/svg">
  <g transform="matrix(1 0 0 1 -82 -658 )">
    <path d="M 22.040233408659493 7.5  C 22.77986727460062 7.5  23.240705090778164 8.284882307052612  22.86799322085767 8.909882307052612  C 22.86799322085767 8.909882307052612  19.97606282256716 13.759686946868896  19.97606282256716 13.759686946868896  C 19.751017318219308 14.137111715972424  19.428780706200218 14.450243394821882  19.04147217887713 14.667867422103882  C 18.65416365155404 14.885491449385881  18.21531251993445 15.000006976678153  17.768662297707095 15  C 17.768662297707095 15  1.7978737058371876 15  1.7978737058371876 15  C 1.0582398398960624 15  0.5974011859419476 14.215117692947388  0.9700731472329346 13.590117692947388  C 0.9700731472329346 13.590117692947388  3.862004383300015 8.740313053131104  3.862004383300015 8.740313053131104  C 4.08706247333685 8.362890519201756  4.409307748727321 8.04976174607873  4.796621835840402 7.832138538360595  C 5.183935922953483 7.614515330642461  5.622791129213678 7.499997960538281  6.069445730727669 7.5  C 6.069445730727669 7.5  22.040233408659493 7.5  22.040233408659493 7.5  Z M 2.758283709586188 8.11046838760376  C 3.442573750432068 6.96289025247097  4.711367254546961 6.25  6.069445730727669 6.25  C 6.069445730727669 6.25  19.16667072861369 6.25  19.16667072861369 6.25  C 19.16667072861369 6.25  19.16667072861369 4.375  19.16667072861369 4.375  C 19.16667072861369 3.3394531160593033  18.30856291700743 2.5  17.250003655752323 2.5  C 17.250003655752323 2.5  10.861113412881092 2.5  10.861113412881092 2.5  L 8.3055573157326 0  C 8.3055573157326 0  1.916667072861369 0  1.916667072861369 0  C 0.8581078116062615 0  0 0.8394531160593033  0 1.875  C 0 1.875  0 12.73617148399353  0 12.73617148399353  C 0 12.73617148399353  2.758283709586188 8.11046838760376  2.758283709586188 8.11046838760376  Z " fill-rule="nonzero" fill="#000000" stroke="none" transform="matrix(1 0 0 1 82 658 )" />
  </g>
</svg>