<?xml version="1.0" encoding="utf-8"?>
<svg version="1.1" xmlns:xlink="http://www.w3.org/1999/xlink" width="30px" height="30px" xmlns="http://www.w3.org/2000/svg">
  <g transform="matrix(1 0 0 1 -108 -21 )">
    <path d="M 29.586147797307213 27.928914573069175  C 30.136969309231183 27.378187114268947  30.13696970041528 26.48764901494465  29.592007958517378 25.936921556144423  C 29.592007958517378 25.936921556144423  23.749783097735698 20.09569425897621  23.749783097735698 20.09569425897621  C 23.486091937709308 19.832048124383228  23.128643926372987 19.685578049609347  22.753616493191547 19.685578049609347  C 22.753616493191547 19.685578049609347  21.798469228848447 19.685578049609347  21.798469228848447 19.685578049609347  C 23.415775032697034 17.617420638501294  24.376782793550944 15.016112021118966  24.376782793550944 12.18631022118674  C 24.376782793550944 5.454545495181019  18.921305772196202 0  12.188391396775472 0  C 5.4554770213547465 0  0 5.454545495181019  0 12.18631022118674  C 0 18.91807494719246  5.4554770213547465 24.37262044237348  12.188391396775472 24.37262044237348  C 15.018676469685332 24.37262044237348  17.62042933802591 23.411776774206395  19.688939948637305 21.794747126353204  C 19.688939948637305 21.794747126353204  19.688939948637305 22.74973129869299  19.688939948637305 22.74973129869299  C 19.688939948637305 23.124694695701507  19.835435037540854 23.48208167256238  20.09912619756725 23.745727807155365  C 20.09912619756725 23.745727807155365  25.941351058348932 29.586955104323575  25.941351058348932 29.586955104323575  C 26.492172570272906 30.1376825631238  27.382862364329164 30.1376825631238  27.92782410622706 29.586955104323575  C 27.92782410622706 29.586955104323575  29.586147797307213 27.928914573069175  29.586147797307213 27.928914573069175  Z M 19.688939948637305 12.18631022118674  C 19.688939948637305 16.328483756995567  16.33713249335106 19.685578049609347  12.188391396775472 19.685578049609347  C 8.045510461410053 19.685578049609347  4.687842844913644 16.334342917579477  4.687842844913644 12.18631022118674  C 4.687842844913644 8.04413668537792  8.039650300199886 4.6870423927641305  12.188391396775472 4.6870423927641305  C 16.33127233214089 4.6870423927641305  19.688939948637305 8.038277524794008  19.688939948637305 12.18631022118674  Z " fill-rule="nonzero" fill="#404040" stroke="none" transform="matrix(1 0 0 1 108 21 )" />
  </g>
</svg>