<?xml version="1.0" encoding="utf-8"?>
<svg version="1.1" xmlns:xlink="http://www.w3.org/1999/xlink" width="25px" height="22px" xmlns="http://www.w3.org/2000/svg">
  <g transform="matrix(1 0 0 1 -32 -14 )">
    <path d="M 9.722222222222221 17.875  C 9.166666658388243 18.287500016391277  8.055555572112402 19.25  6.944444444444445 19.25  C 5.833333316776487 19.25  4.722222230500645 18.287500016391277  4.166666666666666 17.875  C 1.3888888888888884 15.950000032782555  0.5555555638339784 15.262500278651714  0 14.850000262260437  C 0 14.850000262260437  0 20.625  0 20.625  C 0 21.384257815778255  0.6219618022441864 22  1.3888888888888888 22  C 1.3888888888888888 22  12.5 22  12.5 22  C 13.266927086644703 22  13.88888888888889 21.384257815778255  13.88888888888889 20.625  C 13.88888888888889 20.625  13.88888888888889 14.850000262260437  13.88888888888889 14.850000262260437  C 13.33333332505491 15.262500278651714  12.5 15.950000032782555  9.722222222222221 17.875  Z M 13.88888888888889 12.375  C 13.88888888888889 11.615742184221745  13.266927086644703 11  12.5 11  C 12.5 11  1.3888888888888888 11  1.3888888888888888 11  C 0.6219618022441864 11  0 11.615742184221745  0 12.375  C 0 12.375  0 13.0625  0 13.0625  C 1.1111111276679568 13.887500032782555  0.9722219573126898 13.887499868869781  4.999999867545234 16.774999737739563  C 5.416666550768746 17.049999741837382  6.25 17.875  6.944444444444445 17.875  C 7.638888888888889 17.875  8.472222338120142 17.050000264309347  8.888889021343655 16.912500262260437  C 12.916666931576199 14.025000393390656  12.777777761220932 14.025000557303429  13.88888888888889 13.200000524520874  C 13.88888888888889 13.200000524520874  13.88888888888889 12.375  13.88888888888889 12.375  Z M 25 8.25  C 25 7.4907421842217445  24.378038197755814 6.875  23.61111111111111 6.875  C 23.61111111111111 6.875  9.722222222222221 6.875  9.722222222222221 6.875  C 8.955295135577519 6.875  8.333333333333332 7.4907421842217445  8.333333333333332 8.25  C 8.333333333333332 8.25  8.333333333333332 9.625  8.333333333333332 9.625  C 8.333333333333332 9.625  12.5 9.625  12.5 9.625  C 13.94140621026357 9.625  15.129773939649263 10.717265874147415  15.265190601348877 12.109453439712524  C 15.265190601348877 12.109453439712524  15.277777777777777 12.100000262260437  15.277777777777777 12.100000262260437  L 15.277777777777777 17.875  C 15.277777777777777 17.875  23.61111111111111 17.875  23.61111111111111 17.875  C 24.378038197755814 17.875  25 17.259257815778255  25 16.5  C 25 16.5  25 8.25  25 8.25  Z M 22.22222222222222 9.625  L 22.22222222222222 12.375  L 19.444444444444443 12.375  L 19.444444444444443 9.625  L 22.22222222222222 9.625  Z M 6.944444444444445 9.625  C 6.944444444444445 9.625  6.944444444444445 8.25  6.944444444444445 8.25  C 6.944444444444445 6.7336327731609344  8.190538154708014 5.5  9.722222222222221 5.5  C 9.722222222222221 5.5  19.444444444444443 5.5  19.444444444444443 5.5  C 19.444444444444443 5.5  19.444444444444443 1.375  19.444444444444443 1.375  C 19.444444444444443 0.6157421842217445  18.822482642200256 0  18.055555555555554 0  C 18.055555555555554 0  4.166666666666666 0  4.166666666666666 0  C 3.399739580021963 0  2.7777777777777777 0.6157421842217445  2.7777777777777777 1.375  C 2.7777777777777777 1.375  2.7777777777777777 9.625  2.7777777777777777 9.625  L 6.944444444444445 9.625  Z " fill-rule="nonzero" fill="#404040" stroke="none" transform="matrix(1 0 0 1 32 14 )" />
  </g>
</svg>