<?xml version="1.0" encoding="utf-8"?>
<svg version="1.1" xmlns:xlink="http://www.w3.org/1999/xlink" width="15px" height="20px" xmlns="http://www.w3.org/2000/svg">
  <g transform="matrix(1 0 0 1 -135 -218 )">
    <path d="M 7.027343511581421 8.17187488079071  C 7.35546849668026 8.17187488079071  7.324218507856131 9.613281488418579  7.105468511581421 10.003906488418579  C 6.910156011581421 9.378906488418579  6.914062257856131 8.17187488079071  7.027343511581421 8.17187488079071  Z M 8.38671863079071 13.441406488418579  C 7.89062488824129 13.066406473517418  7.414062395691872 12.52734325826168  7.0390623807907104 11.847655773162842  C 6.738281138241291 12.636718302965164  6.363281384110451 13.539062514901161  5.9296876192092896 14.296875  C 6.644531339406967 14.0234375  7.453124895691872 13.625000230967999  8.38671863079071 13.441406488418579  Z M 4.7265625 15.152343511581421  C 4.464843757450581 15.398437269032001  3.589843697845936 16.10937524586916  3.3632811903953552 16.72265648841858  C 3.3632811903953552 16.75390648888424  3.878906220197678 16.5117184817791  4.7265625 15.152343511581421  Z M 8.75 5.3125  C 8.75 5.828124992549419  9.17187500745058 6.25  9.6875 6.25  C 9.6875 6.25  15 6.25  15 6.25  C 15 6.25  15 19.0625  15 19.0625  C 15 19.58203125745058  14.58203125745058 20  14.0625 20  C 14.0625 20  0.9375 20  0.9375 20  C 0.4179687425494194 20  0 19.58203125745058  0 19.0625  C 0 19.0625  0 0.9375  0 0.9375  C 0 0.4179687425494194  0.4179687425494194 0  0.9375 0  C 0.9375 0  8.75 0  8.75 0  C 8.75 0  8.75 5.3125  8.75 5.3125  Z M 9.375 12.960937023162842  C 8.59375 12.484374530613422  8.074218854308128 11.828124970197678  7.707031369209289 10.859375  C 7.882812619209289 10.13671875  8.16015625372529 9.03906263411045  7.949218749999999 8.35156261920929  C 7.76562500745058 7.203125134110451  6.292968634516001 7.316406220197678  6.0820311307907104 8.0859375  C 5.8867186307907104 8.800781220197678  6.0664063692092896 9.808593690395355  6.3984376192092896 11.09375  C 5.945312604308128 12.171875014901161  5.277343764901161 13.61718699336052  4.8046875 14.445312023162842  C 4.800781249941792 14.445312023162842  4.800781369267497 14.449218511581421  4.7968751192092896 14.449218511581421  C 3.7382813543081284 14.99218724668026  1.9218751043081281 16.18749976158142  2.6679688692092896 17.10546851158142  C 2.8867188654839993 17.37499976530671  3.2929688692092896 17.49609351158142  3.5078126192092896 17.49609351158142  C 4.207031354308128 17.49609351158142  4.902343526482582 16.792968958616257  5.894531011581421 15.082031488418579  C 6.9023434817790985 14.750000238418579  8.007812276482582 14.33593725785613  8.980468511581421 14.175781011581421  C 9.828124791383743 14.636718519032001  10.820312276482582 14.937499761581421  11.480468511581421 14.937499761581421  C 12.621093541383743 14.937499761581421  12.699218988418579 13.687499985098839  12.250000238418579 13.2421875  C 11.70703150331974 12.710937485098839  10.128906220197678 12.863280773162842  9.375 12.960937023162842  Z M 15 4.761718809604645  C 15 4.515625052154064  14.90234375 4.27734375  14.7265625 4.1015625  C 14.7265625 4.1015625  10.8984375 0.2734375  10.8984375 0.2734375  C 10.72265625 0.09765625  10.48437500372529 0  10.234375 0  C 10.234375 0  10 0  10 0  L 10 5  L 15 5  C 15 5  15 4.761718809604645  15 4.761718809604645  Z M 10.160156488418579 13.722655773162842  C 11.609375178813934 14.339843280613422  11.832031011581421 14.074218273162842  11.832031011581421 14.074218273162842  C 11.99218725785613 13.968749521300197  11.734375208616257 13.609374519437551  10.160156488418579 13.722655773162842  Z " fill-rule="nonzero" fill="#404040" stroke="none" transform="matrix(1 0 0 1 135 218 )" />
  </g>
</svg>