<?xml version="1.0" encoding="utf-8"?>
<svg version="1.1" xmlns:xlink="http://www.w3.org/1999/xlink" width="22px" height="20px" xmlns="http://www.w3.org/2000/svg">
  <g transform="matrix(1 0 0 1 -132 -59 )">
    <path d="M 22 9.285714285714286  C 22 4.156249931880406  17.075780987739563 0  11 0  C 4.924219012260437 0  0 4.156249931880406  0 9.285714285714286  C 0 11.499999931880405  0.9195313155651093 13.52678622518267  2.44921875 15.120536259242467  C 1.912109375 17.37053632736206  0.11601562704890966 19.375  0.09453125204890966 19.397321428571427  C 0 19.499999997871264  -0.025781248463317752 19.651786259242467  0.030078124487772584 19.785714830671036  C 0.08593749743886292 19.91964340209961  0.20624999795109034 20  0.34375 20  C 3.1925782561302185 20  5.32812524586916 18.58035743236542  6.385156512260437 17.70535741533552  C 7.790234670042992 18.254464566707615  9.34999993443489 18.571428571428573  11 18.571428571428573  C 17.075780987739563 18.571428571428573  22 14.415178639548166  22 9.285714285714286  Z M 6.875 9.285714285714286  C 6.875 10.075892891202653  6.260546907782555 10.714285714285714  5.5 10.714285714285714  C 4.739453092217445 10.714285714285714  4.125 10.075892891202653  4.125 9.285714285714286  C 4.125 8.495535680225917  4.739453092217445 7.857142857142858  5.5 7.857142857142858  C 6.260546907782555 7.857142857142858  6.875 8.495535680225917  6.875 9.285714285714286  Z M 12.375 9.285714285714286  C 12.375 10.075892891202653  11.760546907782555 10.714285714285714  11 10.714285714285714  C 10.239453092217445 10.714285714285714  9.625 10.075892891202653  9.625 9.285714285714286  C 9.625 8.495535680225917  10.239453092217445 7.857142857142858  11 7.857142857142858  C 11.760546907782555 7.857142857142858  12.375 8.495535680225917  12.375 9.285714285714286  Z M 17.875 9.285714285714286  C 17.875 10.075892891202653  17.260546907782555 10.714285714285714  16.5 10.714285714285714  C 15.739453092217445 10.714285714285714  15.125 10.075892891202653  15.125 9.285714285714286  C 15.125 8.495535680225917  15.739453092217445 7.857142857142858  16.5 7.857142857142858  C 17.260546907782555 7.857142857142858  17.875 8.495535680225917  17.875 9.285714285714286  Z " fill-rule="nonzero" fill="#404040" stroke="none" transform="matrix(1 0 0 1 132 59 )" />
  </g>
</svg>