<?xml version="1.0" encoding="utf-8"?>
<svg version="1.1" xmlns:xlink="http://www.w3.org/1999/xlink" width="23px" height="21px" xmlns="http://www.w3.org/2000/svg">
  <g transform="matrix(1 0 0 1 -292 -176 )">
    <path d="M 23 9.75  C 23 4.364062428474425  17.851952850818634 0  11.5 0  C 5.148047149181366 0  0 4.364062428474425  0 9.75  C 0 12.074999928474424  0.9613281935453415 14.203125536441803  2.560546875 15.876563072204592  C 1.9990234375 18.239063143730164  0.12128906464204192 20.34375  0.09882812714204192 20.3671875  C 0 20.47499999776483  -0.02695312339346856 20.63437557220459  0.03144531196448952 20.77500057220459  C 0.0898437473224476 20.91562557220459  0.21562499785795808 21  0.359375 21  C 3.337695449590683 21  5.570312757045031 19.509375303983692  6.675390899181366 18.5906252861023  C 8.144336245954037 19.167187795042995  9.774999931454659 19.5  11.5 19.5  C 17.851952850818634 19.5  23 15.135937571525576  23 9.75  Z M 7.1875 9.75  C 7.1875 10.579687535762787  6.545117221772671 11.25  5.75 11.25  C 4.954882778227329 11.25  4.3125 10.579687535762787  4.3125 9.75  C 4.3125 8.920312464237211  4.954882778227329 8.250000000000002  5.75 8.250000000000002  C 6.545117221772671 8.250000000000002  7.1875 8.920312464237211  7.1875 9.75  Z M 12.9375 9.75  C 12.9375 10.579687535762787  12.29511722177267 11.25  11.5 11.25  C 10.70488277822733 11.25  10.0625 10.579687535762787  10.0625 9.75  C 10.0625 8.920312464237211  10.70488277822733 8.250000000000002  11.5 8.250000000000002  C 12.29511722177267 8.250000000000002  12.9375 8.920312464237211  12.9375 9.75  Z M 18.6875 9.75  C 18.6875 10.579687535762787  18.04511722177267 11.25  17.25 11.25  C 16.45488277822733 11.25  15.8125 10.579687535762787  15.8125 9.75  C 15.8125 8.920312464237211  16.45488277822733 8.250000000000002  17.25 8.250000000000002  C 18.04511722177267 8.250000000000002  18.6875 8.920312464237211  18.6875 9.75  Z " fill-rule="nonzero" fill="#404040" stroke="none" transform="matrix(1 0 0 1 292 176 )" />
  </g>
</svg>