<?xml version="1.0" encoding="utf-8"?>
<svg version="1.1" xmlns:xlink="http://www.w3.org/1999/xlink" width="13px" height="17px" xmlns="http://www.w3.org/2000/svg">
  <g transform="matrix(1 0 0 1 -137 -269 )">
    <path d="M 8.395833333333334 5.3125  C 7.948958339790503 5.3125  7.583333333333334 4.9539062436670065  7.583333333333334 4.515625  C 7.583333333333334 4.515625  7.583333333333334 0  7.583333333333334 0  C 7.583333333333334 0  0.8125 0  0.8125 0  C 0.3622395768761635 0  0 0.3552734311670065  0 0.796875  C 0 0.796875  0 16.203125  0 16.203125  C 0 16.644726568832994  0.3622395768761635 17  0.8125 17  C 0.8125 17  12.1875 17  12.1875 17  C 12.637760423123837 17  13 16.644726568832994  13 16.203125  C 13 16.203125  13 5.3125  13 5.3125  C 13 5.3125  8.395833333333334 5.3125  8.395833333333334 5.3125  Z M 9.75 12.0859375  C 9.75 12.0859375  9.75 12.3515625  9.75 12.3515625  C 9.75 12.570703121833503  9.567187496771416 12.75  9.34375 12.75  C 9.34375 12.75  3.65625 12.75  3.65625 12.75  C 3.432812503228585 12.75  3.25 12.570703121833503  3.25 12.3515625  C 3.25 12.3515625  3.25 12.0859375  3.25 12.0859375  C 3.25 11.866796878166497  3.432812503228585 11.6875  3.65625 11.6875  C 3.65625 11.6875  9.34375 11.6875  9.34375 11.6875  C 9.567187496771416 11.6875  9.75 11.866796878166497  9.75 12.0859375  Z M 9.75 9.9609375  C 9.75 9.9609375  9.75 10.2265625  9.75 10.2265625  C 9.75 10.445703121833503  9.567187496771416 10.625  9.34375 10.625  C 9.34375 10.625  3.65625 10.625  3.65625 10.625  C 3.432812503228585 10.625  3.25 10.445703121833503  3.25 10.2265625  C 3.25 10.2265625  3.25 9.9609375  3.25 9.9609375  C 3.25 9.741796878166497  3.432812503228585 9.5625  3.65625 9.5625  C 3.65625 9.5625  9.34375 9.5625  9.34375 9.5625  C 9.567187496771416 9.5625  9.75 9.741796878166497  9.75 9.9609375  Z M 9.34375 7.4375  C 9.567187496771416 7.4375  9.75 7.616796878166497  9.75 7.8359375  C 9.75 7.8359375  9.75 8.1015625  9.75 8.1015625  C 9.75 8.320703121833503  9.567187496771416 8.5  9.34375 8.5  C 9.34375 8.5  3.65625 8.5  3.65625 8.5  C 3.432812503228585 8.5  3.25 8.320703121833503  3.25 8.1015625  C 3.25 8.1015625  3.25 7.8359375  3.25 7.8359375  C 3.25 7.616796878166497  3.432812503228585 7.4375  3.65625 7.4375  C 3.65625 7.4375  9.34375 7.4375  9.34375 7.4375  Z M 12.763020833333334 3.486328125  C 12.915364583333334 3.6357421875  13 3.8382812943309546  13 4.047460988163948  C 13 4.047460988163948  13 4.25  13 4.25  L 8.666666666666666 4.25  L 8.666666666666666 0  C 8.666666666666666 0  8.873177289962769 0  8.873177289962769 0  C 9.08984395985802 0  9.296354373296102 0.0830078125  9.448698123296102 0.232421875  C 9.448698123296102 0.232421875  12.763020833333334 3.486328125  12.763020833333334 3.486328125  Z " fill-rule="nonzero" fill="#000000" stroke="none" transform="matrix(1 0 0 1 137 269 )" />
  </g>
</svg>