<?xml version="1.0" encoding="utf-8"?>
<svg version="1.1" xmlns:xlink="http://www.w3.org/1999/xlink" width="15px" height="14px" xmlns="http://www.w3.org/2000/svg">
  <g transform="matrix(1 0 0 1 -18 -576 )">
    <path d="M 15 6.5  C 15 2.9093749523162837  11.642577946186066 0  7.5 0  C 3.3574220538139343 0  0 2.9093749523162837  0 6.5  C 0 8.049999952316284  0.6269531697034836 9.468750357627869  1.669921875 10.584375381469727  C 1.3037109375 12.159375429153442  0.07910156389698386 13.5625  0.06445312639698386 13.578125  C 0 13.649999998509886  -0.017578123952262104 13.756250381469727  0.020507812150754035 13.850000381469727  C 0.05859374825377017 13.943750381469727  0.14062499860301614 14  0.234375 14  C 2.176757901906967 14  3.6328126676380634 13.006250202655794  4.353515803813934 12.393750190734865  C 5.311523638665676 12.77812519669533  6.374999955296516 13  7.5 13  C 11.642577946186066 13  15 10.090625047683718  15 6.5  Z M 4.6875 6.5  C 4.6875 7.053125023841858  4.268554709851742 7.5  3.75 7.5  C 3.231445290148258 7.5  2.8125 7.053125023841858  2.8125 6.5  C 2.8125 5.946874976158141  3.231445290148258 5.500000000000001  3.75 5.500000000000001  C 4.268554709851742 5.500000000000001  4.6875 5.946874976158141  4.6875 6.5  Z M 8.4375 6.5  C 8.4375 7.053125023841858  8.018554709851742 7.5  7.5 7.5  C 6.981445290148258 7.5  6.5625 7.053125023841858  6.5625 6.5  C 6.5625 5.946874976158141  6.981445290148258 5.500000000000001  7.5 5.500000000000001  C 8.018554709851742 5.500000000000001  8.4375 5.946874976158141  8.4375 6.5  Z M 12.1875 6.5  C 12.1875 7.053125023841858  11.768554709851742 7.5  11.25 7.5  C 10.731445290148258 7.5  10.3125 7.053125023841858  10.3125 6.5  C 10.3125 5.946874976158141  10.731445290148258 5.500000000000001  11.25 5.500000000000001  C 11.768554709851742 5.500000000000001  12.1875 5.946874976158141  12.1875 6.5  Z " fill-rule="nonzero" fill="#404040" stroke="none" transform="matrix(1 0 0 1 18 576 )" />
  </g>
</svg>